<?xml version="1.0" encoding="UTF-8"?><svg xmlns="http://www.w3.org/2000/svg" viewBox="0 0 189.58 189.34"><g id="a"/><g id="b"><g id="c"><g><path d="M108.87,16.02l-4.51-9.45,5.72-5.51-2.02-.2-5.42,5.2c-1.05,1.01-1.64,1.68-2.03,2.33l-.16-.02c.14-.69,.26-1.64,.35-2.48l.57-5.71-1.85-.19-1.5,14.93,1.85,.19,.5-4.93,2.69-2.41,3.76,8.05,2.06,.2Z"/><polygon points="120.96 17.46 113.93 15.54 115.28 10.56 121.25 12.18 121.7 10.54 115.73 8.91 116.97 4.34 123.9 6.23 124.35 4.58 115.63 2.21 111.69 16.7 120.51 19.1 120.96 17.46"/><polygon points="131.99 24.04 132.68 22.49 126.04 19.5 128.16 14.78 133.8 17.32 134.5 15.77 128.86 13.23 130.8 8.91 137.35 11.86 138.05 10.31 129.81 6.6 123.64 20.28 131.99 24.04"/><path d="M136.43,26.69l2.98-4.51,3.22,2.13c2.25,1.49,4.81,.89,6.43-1.57,1.63-2.46,1.1-4.95-1.14-6.44l-4.77-3.15-8.27,12.52,1.55,1.02Zm7.34-11.1l3.12,2.06c1.39,.92,1.79,2.27,.6,4.06-1.19,1.8-2.63,2.02-4.02,1.1l-3.12-2.06,3.42-5.17Z"/><path d="M163.47,41.58l.85-.76c3.62-3.23,3.98-6.17,1.24-9.25-2.76-3.09-5.72-3.05-9.34,.18l-.85,.76c-3.62,3.23-3.98,6.17-1.22,9.25,2.74,3.07,5.7,3.04,9.32-.19Zm-6.85-7.67l.85-.76c2.82-2.52,4.8-2.67,6.8-.44s1.63,4.18-1.2,6.71l-.85,.76c-2.82,2.52-4.8,2.67-6.8,.43-2-2.23-1.63-4.18,1.19-6.71Z"/><path d="M161.22,50.5l8.08-4.84c.72-.43,1.44-.86,2.3-1.45l.08,.13c-.35,.45-.91,1.45-1.5,2.66l-4.97,10.16,.95,1.59,12.87-7.71-.95-1.59-8.08,4.84c-.72,.43-1.44,.86-2.3,1.45l-.08-.13c.53-.76,1-1.65,1.5-2.66l4.97-10.16-.95-1.59-12.87,7.71,.95,1.59Z"/><path d="M177.66,69.41l.28,2.87c.17,1.73-.28,2.5-1.59,2.88-1.7,.48-2.71-.28-3.35-2.55-.61-2.16-.24-3.33,1.22-3.91l.09-.04-.49-1.73h-.02c-2.42,.69-3.4,2.82-2.47,6.09,.95,3.35,2.96,4.63,5.62,3.88,2.2-.62,3.07-2.07,2.82-4.54l-.29-2.87c-.16-1.54,.28-2.24,1.59-2.61,1.73-.49,2.72,.22,3.3,2.27,.58,2.05,.11,3.18-1.19,3.68l-.1,.04,.5,1.76h.02c2.47-.7,3.32-2.79,2.45-5.89-.87-3.06-2.65-4.44-5.6-3.61-2.11,.59-3.01,1.98-2.78,4.27Z"/><path d="M181.52,79.95l-1.15,.12c-4.73,.48-6.84,2.77-6.42,6.83,.39,3.8,2.92,5.02,4.93,4.97h.25l-.18-1.8h-.2c-1.66-.09-2.9-1.43-3.09-3.37-.29-2.86,1.29-4.39,4.91-4.76l1.15-.12c3.62-.37,5.47,.81,5.76,3.65,.2,1.95-.74,3.52-2.35,3.93l-.19,.05,.18,1.8,.25-.05c1.8-.32,4.22-1.92,3.82-5.86-.42-4.06-2.94-5.88-7.67-5.4Z"/><path d="M174.63,95.63l-.13,1.85,5.69,.41-.25,3.51-5.92,2.77-.15,2.02,4.43-2.05c.56-.26,1.19-.61,1.71-.94,.42,1.84,1.94,2.98,4.27,3.15,2.94,.21,4.71-1.48,4.91-4.25l.39-5.39-14.95-1.08Zm12.88,6.25c-.13,1.74-1.08,2.77-3.09,2.62-2.02-.15-2.98-1.31-2.85-3.05l.25-3.45,5.94,.43-.25,3.45Z"/><path d="M181.32,110.71l-1.11-.28c-4.7-1.21-7.34,.13-8.37,4.14-1.02,3.99,.65,6.44,5.35,7.64l1.11,.28c4.7,1.21,7.35-.13,8.38-4.12,1.03-4.01-.65-6.46-5.35-7.66Zm3.69,7.23c-.74,2.91-2.57,3.69-6.25,2.74l-1.11-.28c-3.66-.94-4.89-2.5-4.15-5.41,.74-2.9,2.57-3.69,6.24-2.75l1.11,.28c3.67,.94,4.89,2.5,4.16,5.41Z"/><polygon points="165.71 131.43 167.26 132.13 169.99 126.01 182.13 131.44 182.88 129.74 169.2 123.63 165.71 131.43"/><polygon points="159.42 141.63 160.85 142.55 164.47 136.91 175.67 144.08 176.67 142.51 164.04 134.43 159.42 141.63"/><rect x="161.33" y="142.5" width="1.86" height="15" transform="translate(-56.62 180.33) rotate(-50.64)"/><path d="M151.71,150.67l6.39,6.92c.57,.62,1.14,1.23,1.88,1.95l-.12,.11c-.51-.26-1.6-.6-2.91-.92l-10.96-2.79-1.36,1.26,10.17,11.02,1.36-1.26-6.39-6.92c-.57-.62-1.14-1.23-1.88-1.95l.11-.11c.86,.37,1.82,.65,2.91,.92l10.96,2.79,1.36-1.26-10.17-11.02-1.36,1.26Z"/><path d="M145.66,165.16c-2.4-3.87-5.53-4.92-8.65-2.98-1.69,1.05-2.53,2.46-2.5,4.37l-.13,.08-1.25-1.87-1.37,.85,4.21,6.8,4.74-2.94-.91-1.46-3.18,1.97-.28-.46c-1.27-2.05-.68-4.47,1.44-5.78,2.2-1.36,4.46-.53,6.28,2.4l.61,.98c1.87,3.01,1.53,5.32-1.01,6.9-1.77,1.1-3.37,1.07-4.39-.09l-.08-.09-1.6,.99,.1,.13c1.56,1.96,4.12,2.25,6.96,.49,3.5-2.17,4.06-5.37,1.61-9.32l-.61-.98Z"/><path d="M87.44,179.15l-2.73,2.35-3.59-8.11-2.06-.24,4.31,9.53-5.83,5.39,2.02,.24,5.52-5.08c1.07-.99,1.67-1.65,2.08-2.29l.15,.02c-.15,.69-.3,1.63-.4,2.47l-.69,5.69,1.84,.22,1.8-14.88-1.84-.22-.6,4.91Z"/><polygon points="67.01 171.47 73.99 173.52 72.54 178.48 66.61 176.74 66.13 178.37 72.06 180.11 70.73 184.65 63.85 182.63 63.37 184.26 72.03 186.81 76.25 172.42 67.48 169.84 67.01 171.47"/><polygon points="56.14 164.68 55.41 166.21 61.99 169.33 59.78 174 54.2 171.35 53.47 172.89 59.05 175.53 57.03 179.81 50.54 176.74 49.82 178.27 57.97 182.14 64.4 168.59 56.14 164.68"/><path d="M51.75,161.93l-3.08,4.46-3.18-2.19c-2.22-1.53-4.8-.98-6.47,1.44-1.68,2.43-1.21,4.93,1.01,6.46l4.7,3.25,8.53-12.35-1.53-1.05Zm-7.56,10.95l-3.08-2.13c-1.38-.95-1.74-2.31-.52-4.08,1.23-1.78,2.67-1.97,4.04-1.02l3.08,2.13-3.52,5.1Z"/><path d="M24.98,146.48l-.87,.75c-3.69,3.16-4.11,6.1-1.43,9.23,2.7,3.14,5.67,3.17,9.35,0l.87-.74c3.69-3.16,4.1-6.1,1.41-9.24-2.69-3.13-5.65-3.16-9.33,0Zm6.71,7.82l-.87,.74c-2.88,2.47-4.86,2.57-6.82,.3s-1.55-4.22,1.34-6.7l.87-.75c2.87-2.46,4.86-2.57,6.81-.3,1.95,2.28,1.55,4.22-1.33,6.69Z"/><path d="M27.42,137.61l-8.19,4.68c-.73,.42-1.46,.83-2.33,1.4l-.08-.14c.36-.45,.94-1.43,1.56-2.63l5.18-10.07-.92-1.61-13.03,7.45,.92,1.61,8.19-4.68c.73-.42,1.46-.83,2.33-1.4l.08,.14c-.55,.75-1.04,1.63-1.56,2.63l-5.18,10.07,.92,1.61,13.03-7.45-.92-1.61Z"/><path d="M11.38,118.39l-.22-2.88c-.14-1.73,.33-2.5,1.65-2.84,1.71-.44,2.7,.34,3.29,2.61,.56,2.17,.17,3.33-1.3,3.88l-.09,.03,.45,1.74h.02c2.43-.64,3.45-2.75,2.6-6.03-.87-3.36-2.86-4.69-5.54-4-2.21,.58-3.11,2.01-2.91,4.48l.23,2.87c.13,1.54-.33,2.23-1.64,2.57-1.74,.45-2.71-.27-3.25-2.34-.54-2.06-.04-3.18,1.27-3.65l.1-.04-.46-1.77h-.02c-2.48,.65-3.38,2.72-2.57,5.84,.8,3.08,2.56,4.49,5.52,3.72,2.12-.55,3.05-1.91,2.87-4.21Z"/><path d="M7.73,107.78l1.15-.1c4.74-.39,6.89-2.64,6.55-6.71-.32-3.81-2.82-5.07-4.83-5.06h-.25l.15,1.8h.2c1.66,.12,2.87,1.49,3.03,3.43,.24,2.86-1.37,4.37-4.99,4.67l-1.15,.1c-3.62,.3-5.46-.91-5.69-3.76-.16-1.96,.81-3.51,2.42-3.89l.19-.05-.15-1.8-.25,.04c-1.81,.29-4.26,1.84-3.93,5.79,.34,4.07,2.83,5.93,7.57,5.54Z"/><path d="M15.1,90.38l-5.68-.52,.32-3.51,5.97-2.66,.18-2.02-4.47,1.96c-.56,.25-1.2,.59-1.73,.91-.39-1.85-1.88-3.01-4.21-3.23-2.94-.27-4.73,1.39-4.99,4.16l-.49,5.38,14.93,1.36,.17-1.85Zm-7-4.11l-.31,3.44-5.93-.54,.31-3.44c.16-1.74,1.13-2.75,3.13-2.57,2.01,.18,2.95,1.37,2.79,3.11Z"/><path d="M8.54,77.03l1.1,.31c4.68,1.3,7.35,0,8.45-3.98,1.1-3.97-.52-6.45-5.2-7.75l-1.1-.31c-4.68-1.3-7.36-.01-8.46,3.96-1.11,3.99,.53,6.47,5.21,7.77Zm-3.55-7.3c.79-2.89,2.64-3.64,6.3-2.62l1.1,.31c3.64,1.01,4.85,2.6,4.04,5.49-.8,2.89-2.64,3.64-6.29,2.62l-1.1-.31c-3.65-1.01-4.85-2.6-4.05-5.49Z"/><polygon points="24.59 56.58 23.05 55.86 20.2 61.92 8.16 56.25 7.37 57.92 20.94 64.32 24.59 56.58"/><polygon points="31.08 46.53 29.66 45.59 25.94 51.16 14.88 43.76 13.85 45.3 26.32 53.64 31.08 46.53"/><rect x="27.48" y="30.61" width="1.86" height="15.01" transform="translate(-19.02 34.96) rotate(-49.5)"/><path d="M32.71,30.61c-.56-.63-1.12-1.26-1.85-1.99l.12-.1c.51,.27,1.59,.63,2.9,.98l10.91,3,1.39-1.23-9.96-11.23-1.39,1.23,6.26,7.05c.56,.63,1.12,1.26,1.85,1.99l-.12,.1c-.85-.38-1.81-.68-2.9-.98l-10.91-3-1.39,1.23,9.96,11.23,1.39-1.23-6.26-7.05Z"/><path d="M45.29,23.3c2.32,3.92,5.43,5.03,8.59,3.16,1.72-1.02,2.58-2.4,2.58-4.32l.13-.08,1.21,1.89,1.39-.82-4.07-6.89-4.8,2.84,.88,1.48,3.22-1.91,.27,.46c1.23,2.08,.59,4.49-1.56,5.76-2.23,1.32-4.47,.44-6.23-2.53l-.59-.99c-1.81-3.05-1.42-5.36,1.15-6.88,1.79-1.06,3.39-1.01,4.39,.18l.08,.09,1.62-.96-.1-.13c-1.52-1.99-4.08-2.33-6.95-.63-3.54,2.09-4.17,5.28-1.8,9.29l.59,.99Z"/><path d="M65.73,13.68c6.23-2.23,12.73-3.74,19.33-4.48l-6.19,6.99c-.18,.21-.16,.52,.04,.71,.1,.08,.21,.13,.33,.13,.14,0,.28-.06,.37-.17l7.05-7.95s0-.02,.01-.03c0-.01,.02-.02,.03-.03,.04-.06,.06-.13,.07-.2,0-.01,0-.02,0-.04,0-.08,0-.16-.04-.23,0-.01,0-.02,0-.03,0,0-.01,0-.01-.02-.04-.07-.09-.13-.16-.18l-9.13-5.94c-.23-.15-.54-.08-.69,.15-.15,.23-.09,.54,.15,.69l7.96,5.18c-6.64,.75-13.18,2.26-19.46,4.51-.26,.09-.4,.38-.3,.64,.09,.26,.38,.39,.64,.3Z"/><path d="M127.02,174.56c-6.99,2.83-14.33,4.72-21.83,5.62l7.25-7.26c.2-.2,.2-.51,0-.71s-.51-.2-.71,0l-8.26,8.27s0,.02-.02,.03c-.03,.03-.06,.06-.08,.1-.02,.04-.02,.08-.03,.11,0,.02-.01,.03-.01,.04-.01,.09,0,.18,.04,.26,0,0,0,.01,0,.02,0,.01,.02,.02,.02,.03,.03,.06,.08,.11,.14,.15,.01,.01,.03,.02,.04,.03,0,0,.01,.01,.02,.02l9.01,4.57c.07,.04,.15,.05,.23,.05,.18,0,.36-.1,.45-.27,.12-.25,.03-.55-.22-.67l-7.55-3.83c7.52-.93,14.87-2.82,21.88-5.65,.26-.1,.38-.4,.28-.65-.1-.26-.4-.38-.65-.28Z"/></g></g></g></svg>